<?xml version="1.0" encoding="iso-8859-1"?>
<!-- Generator: Adobe Illustrator 19.0.0, SVG Export Plug-In . SVG Version: 6.00 Build 0)  -->
<svg version="1.1" id="Capa_1" xmlns="http://www.w3.org/2000/svg" xmlns:xlink="http://www.w3.org/1999/xlink" x="0px" y="0px"
	 viewBox="0 0 487 487" style="enable-background:new 0 0 487 487;" xml:space="preserve">
<path style="fill:#ED664C;" d="M243.5,10C372.4,10,477,114.6,477,243.5S372.4,477,243.5,477S10,372.4,10,243.5S114.6,10,243.5,10z
	 M321.3,347.3c0-43-34.9-77.8-77.8-77.8s-77.8,34.9-77.8,77.8s34.9,77.8,77.8,77.8S321.3,390.2,321.3,347.3z"/>
<path d="M243.5,0c-65,0-126.2,25.3-172.2,71.3S0,178.4,0,243.5s25.3,126.2,71.3,172.2S178.4,487,243.5,487
	c65,0,126.2-25.3,172.2-71.3S487,308.6,487,243.5s-25.3-126.2-71.3-172.2S308.5,0,243.5,0z M243.5,467C120.3,467,20,366.7,20,243.5
	S120.3,20,243.5,20S467,120.3,467,243.5S366.7,467,243.5,467z"/>
<polygon points="190.8,218.2 153.9,181.2 190.8,144.3 176.7,130.1 139.7,167.1 102.7,130.1 88.6,144.3 125.6,181.2 88.6,218.2 
	102.7,232.4 139.7,195.4 176.7,232.4 "/>
<polygon points="384.3,130.1 347.3,167.1 310.3,130.1 296.2,144.3 333.1,181.2 296.2,218.2 310.3,232.4 347.3,195.4 384.3,232.4 
	398.4,218.2 361.4,181.2 398.4,144.3 "/>
<ellipse cx="243.511" cy="347.269" rx="87.797" ry="87.797"/>
<g>
</g>
<g>
</g>
<g>
</g>
<g>
</g>
<g>
</g>
<g>
</g>
<g>
</g>
<g>
</g>
<g>
</g>
<g>
</g>
<g>
</g>
<g>
</g>
<g>
</g>
<g>
</g>
<g>
</g>
</svg>
